<svg width="27" height="11" viewBox="0 0 27 11" fill="none" xmlns="http://www.w3.org/2000/svg">
<path d="M4.508 10H3.206L0.21 1.026H1.358L1.568 1.936L3.85 8.866H3.934L6.454 1.992L6.678 1.026H7.798L4.508 10ZM10.2823 7.2L10.3383 10H9.20434L9.27434 7.298L9.20434 1.026H10.3523L10.2823 7.2ZM15.3864 0.956C16.0304 0.956 16.6978 1.096 17.3884 1.376L17.2064 2.454L17.0104 2.51C16.7398 2.30467 16.4504 2.146 16.1424 2.034C15.8438 1.922 15.5451 1.866 15.2464 1.866C14.9011 1.866 14.5978 1.936 14.3364 2.076C14.0844 2.216 13.8884 2.398 13.7484 2.622C13.6178 2.846 13.5524 3.07933 13.5524 3.322C13.5524 3.574 13.6271 3.798 13.7764 3.994C13.9351 4.18067 14.1311 4.344 14.3644 4.484C14.5978 4.624 14.9151 4.792 15.3164 4.988C15.8204 5.22133 16.2264 5.44067 16.5344 5.646C16.8424 5.842 17.1038 6.094 17.3184 6.402C17.5424 6.71 17.6544 7.08333 17.6544 7.522C17.6544 7.98867 17.5284 8.418 17.2764 8.81C17.0244 9.202 16.6698 9.51467 16.2124 9.748C15.7551 9.98133 15.2324 10.098 14.6444 10.098C14.2524 10.098 13.8418 10.0467 13.4124 9.944C12.9924 9.832 12.6004 9.67333 12.2364 9.468L12.3764 8.32L12.5304 8.25C12.8571 8.56733 13.2164 8.80533 13.6084 8.964C14.0098 9.11333 14.3924 9.188 14.7564 9.188C15.1111 9.188 15.4238 9.118 15.6944 8.978C15.9744 8.838 16.1844 8.65133 16.3244 8.418C16.4738 8.18467 16.5484 7.93733 16.5484 7.676C16.5484 7.284 16.3991 6.97133 16.1004 6.738C15.8018 6.49533 15.3491 6.234 14.7424 5.954C14.2478 5.71133 13.8511 5.49667 13.5524 5.31C13.2538 5.114 12.9971 4.86667 12.7824 4.568C12.5678 4.26 12.4604 3.88667 12.4604 3.448C12.4604 2.99067 12.5818 2.57067 12.8244 2.188C13.0764 1.80533 13.4218 1.50667 13.8604 1.292C14.3084 1.068 14.8171 0.956 15.3864 0.956ZM26.036 10H24.888L24.678 9.104L24.174 7.564L22.158 7.522L20.338 7.564L19.792 9.048L19.568 10H18.448L21.738 1.026H23.04L26.036 10ZM23.866 6.612L22.41 2.188H22.312L20.688 6.612L22.256 6.64L23.866 6.612Z" fill="#171A1F"/>
</svg>
